<?xml version="1.0" encoding="utf-8" ?><svg xmlns="http://www.w3.org/2000/svg" xmlns:xlink="http://www.w3.org/1999/xlink" width="602" height="239" viewBox="0 0 602 239"><path fill="#0d9488" d="M477.877 30.651C484.035 30.9637 491.411 30.783 497.64 30.7852C503.841 30.7875 511.635 30.9446 517.758 30.4907C517.195 34.3247 514.609 41.4382 513.286 45.4048L504.335 72.076L474.89 160.974C470.818 173.279 465.923 187.079 462.196 199.358C454.632 199.112 446.914 199.406 439.337 199.303C436.296 199.261 432.86 199.23 429.856 199.486C429.379 197.27 427.218 191.474 426.364 188.86L417.866 163.187L405.471 126.091C403.212 119.323 399.555 107.483 396.391 101.553C393.774 108.335 391.125 117.287 388.709 124.392L371.523 175.24C368.811 183.235 366.147 191.6 363.246 199.5C360.103 199.143 352.567 199.265 349.084 199.296C343.491 199.346 336.372 199.088 330.899 199.463C329.918 195.643 327.124 188.279 325.767 184.172L313.409 147.108C311.164 140.284 309.584 133.716 306.829 127.003C303.687 119.35 302.242 109.995 298.814 102.466C298.293 98.8592 295.929 93.5269 294.727 89.9141C293.006 84.7418 275.758 34.5968 276.135 32.2499C276.162 32.0765 276.183 31.8196 276.34 31.7184C277.23 31.1447 281.277 31.7393 282.558 31.7443L303.964 31.6966C307.371 31.6686 311.715 31.5054 315.084 31.8058C316.362 31.9197 319.129 42.1538 319.593 43.6379L325.93 64.2216L342.421 118.122C343.23 120.746 347.535 135.25 348.422 136.672C349.235 136.271 351.733 127.249 352.203 125.812L372.417 64.1616C373.113 62.0561 382.463 32.731 383.54 32.3063C387.298 30.8239 402.223 32.2619 407.024 31.6935C407.395 31.6495 409.512 31.2526 409.835 31.3301C410.599 32.3997 414.687 45.5471 415.364 47.5825L437.319 113.966C439.205 119.651 441.131 125.322 443.097 130.978C443.618 132.512 444.213 136.232 445.681 136.528C446.554 135.377 449.208 124.676 449.941 122.253L470.1 55.8289L475.136 39.3579C475.608 37.7799 477.196 32.0556 477.798 30.8098L477.877 30.651Z"/><path fill="#0d9488" d="M108.885 30.4241C116.714 30.7406 125.392 30.57 133.301 30.5723L174.463 30.5693C208.295 30.5422 233.081 29.0627 259.47 54.6871C314.785 108.398 280.724 203.311 202.819 206.359C196.48 206.607 190.074 206.475 183.718 206.474L150.433 206.465C143.99 206.462 136.845 206.309 130.466 206.596C130.835 188.731 130.56 170.056 130.556 152.131L130.569 101.954L130.567 86.8389C130.564 84.1361 130.646 80.0198 130.343 77.4753C142.031 77.5266 156.032 77.8209 167.571 77.3659C167.37 84.0765 167.522 91.5705 167.523 98.3444L167.534 137.431L167.527 156.951C167.527 160.259 167.353 165.905 167.905 168.932C169.278 170.153 195.219 169.782 198.949 169.688C212.041 169.36 225.025 163.594 234.151 154.102C243.288 144.599 248.524 131.235 248.592 118.089C248.663 104.193 242.382 90.0393 232.524 80.3512C224.673 72.6349 213.145 67.5556 202.189 66.4855C198.993 66.1734 193.289 66.3592 189.825 66.3586L171.576 66.3575C157.89 66.284 144.204 66.3409 130.52 66.5282C130.514 62.9591 130.574 59.3902 130.699 55.8232C129.174 54.4533 127.856 52.1537 126.359 50.5159C120.36 43.9538 114.661 37.1482 108.885 30.4241Z"/><path fill="#0d9488" d="M514.854 0.275381C516.206 0.609958 521.082 0.49904 522.677 0.516754C529.519 0.592769 536.69 0.351977 543.491 0.446141C549.355 0.527328 557.153 3.8637 561.107 8.24869C563.849 11.2904 566.527 16.1091 567.289 20.1713C567.669 22.1947 567.531 27.1535 567.513 29.4066C567.463 34.1673 567.44 38.9283 567.442 43.6892C567.44 60.0049 567.97 79.6404 567.271 95.707C569.037 97.2282 573.493 99.8521 575.718 101.322L594.128 113.554C596.089 114.862 600.482 117.666 602 119.155C601.743 119.491 568.942 141.52 567.346 142.343C567.897 158.636 567.431 177.028 567.449 193.486L567.48 209.909C567.486 215.357 567.942 217.627 566.036 222.832C563.138 230.746 555.216 236.924 546.964 237.768C540.609 239.336 522.359 238.008 514.545 238.616C514.347 233.04 514.511 226.127 514.452 220.419C516.746 220.514 519.087 220.664 521.386 220.679C531.54 220.745 538.008 222.227 544.571 213.342C543.937 195.61 544.82 177.163 544.492 159.358C544.367 152.604 544.18 144.118 544.649 137.44C551.06 133.004 562.088 124.512 567.888 119.54C560.728 112.83 552.226 107.419 544.664 100.842C544.044 85.9484 544.501 68.4595 544.519 53.4002L544.517 37.2491C544.5 33.826 544.323 29.1746 544.728 25.8625C540.044 17.2531 533.565 18.1729 524.92 18.3499C521.457 18.4289 517.994 18.4819 514.53 18.509C514.397 15.8939 514.484 2.10107 514.854 0.275381Z"/><path fill="#0d9488" d="M87.099 0L87.3403 0C87.9747 2.07131 87.629 15.2245 87.6511 18.5506C84.2126 18.3552 80.7287 18.3183 77.2908 18.3199C67.9796 18.3243 61.9298 17.0279 56.5989 25.7792L56.5809 100.856C48.9352 107.295 40.8634 113.207 33.0546 119.511C34.1283 120.445 35.3882 121.424 36.5676 122.232C43.4099 126.916 49.794 132.562 56.5435 137.303L56.5629 190.085C56.561 197.609 56.2054 205.697 57.0075 213.061C57.3694 216.383 64.0964 220.187 67.2148 220.376C72.7027 220.71 82.5457 221.398 87.7502 220.195C87.2727 225.253 87.6883 232.929 87.4704 238.469C78.7138 238.411 69.8918 238.485 61.2108 238.418C53.4604 238.358 45.9845 236.446 40.6508 230.637C38.0227 227.775 34.4416 222.315 34.034 218.547C33.1949 210.792 33.4921 200.583 33.5369 192.703C33.6322 175.918 33.3635 159.006 33.6549 142.279C32.1906 140.903 29.2944 139.339 28.0379 138.334C23.8218 134.963 2.14932 121.42 0.734611 118.782C1.43818 116.919 29.493 99.3789 33.9063 95.4545C33.3523 91.8601 33.5485 84.5881 33.5497 80.6407L33.5652 55.2542L33.5397 33.8364C33.5306 30.2034 33.3012 23.528 33.952 20.2806C34.7393 16.2371 36.533 12.4573 39.1675 9.29054C46.8216 0.0971465 56.0079 0.426547 66.574 0.457813L81.0754 0.455549C82.724 0.455832 85.9621 0.753728 87.099 0Z"/></svg>